<?xml version="1.0" encoding="UTF-8"?>
<svg width="180px" height="150px" viewBox="0 0 180 150" version="1.1" xmlns="http://www.w3.org/2000/svg" xmlns:xlink="http://www.w3.org/1999/xlink">
    <!-- Generator: Sketch 46.2 (44496) - http://www.bohemiancoding.com/sketch -->
    <title>Group 26</title>
    <desc>Created with Sketch.</desc>
    <defs></defs>
    <g id="Welcome-Page" stroke="none" stroke-width="1" fill="none" fill-rule="evenodd">
        <g id="Tablet-Web-Welcome" transform="translate(-304.000000, -828.000000)">
            <g id="Group-26" transform="translate(305.000000, 828.000000)">
                <path d="M19,39.5 L35,39.5" id="Line-4-Copy-14" stroke="#405F88" stroke-width="3" opacity="0.15" stroke-linecap="round"></path>
                <path d="M13.1666667,39.5 L13.8333333,39.5" id="Line-4-Copy-14" stroke="#405F88" stroke-width="3" opacity="0.15" stroke-linecap="round"></path>
                <path d="M4,39.5 L8,39.5" id="Line-4-Copy-14" stroke="#405F88" stroke-width="3" opacity="0.15" stroke-linecap="round"></path>
                <path d="M7.33333333,59.5 L24.6666667,59.5" id="Line-4-Copy-14" stroke="#405F88" stroke-width="3" opacity="0.15" stroke-linecap="round"></path>
                <path d="M21.6666667,109.5 L28.3333333,109.5" id="Line-4-Copy-14" stroke="#405F88" stroke-width="3" opacity="0.15" stroke-linecap="round"></path>
                <path d="M11.8333333,109.5 L15.1666667,109.5" id="Line-4-Copy-14" stroke="#405F88" stroke-width="3" opacity="0.15" stroke-linecap="round"></path>
                <path d="M0.833333333,109.5 L4.16666667,109.5" id="Line-4-Copy-14" stroke="#405F88" stroke-width="3" opacity="0.15" stroke-linecap="round"></path>
                <path d="M15.8333333,93.5 L19.1666667,93.5" id="Line-4-Copy-14" stroke="#405F88" stroke-width="3" opacity="0.15" stroke-linecap="round"></path>
                <path d="M8.5,93.5 L10.5,93.5" id="Line-4-Copy-14" stroke="#405F88" stroke-width="3" opacity="0.15" stroke-linecap="round"></path>
                <path d="M13.5,76.5 L35.5,76.5" id="Line-4-Copy-14" stroke="#405F88" stroke-width="3" opacity="0.15" stroke-linecap="round"></path>
                <path d="M39.5,136.5 L61.5,136.5" id="Line-4-Copy-14" stroke="#405F88" stroke-width="3" opacity="0.15" stroke-linecap="round"></path>
                <path d="M126.166667,136.5 L134.833333,136.5" id="Line-4-Copy-14" stroke="#405F88" stroke-width="3" opacity="0.15" stroke-linecap="round"></path>
                <path d="M141.833333,136.5 L145.166667,136.5" id="Line-4-Copy-14" stroke="#405F88" stroke-width="3" opacity="0.15" stroke-linecap="round"></path>
                <path d="M142.166667,126.5 L158.833333,126.5" id="Line-4-Copy-14" stroke="#405F88" stroke-width="3" opacity="0.15" stroke-linecap="round"></path>
                <path d="M152.166667,96.5 L168.833333,96.5" id="Line-4-Copy-14" stroke="#405F88" stroke-width="3" opacity="0.15" stroke-linecap="round"></path>
                <path d="M152.166667,56.5 L168.833333,56.5" id="Line-4-Copy-14" stroke="#405F88" stroke-width="3" opacity="0.15" stroke-linecap="round"></path>
                <path d="M173.833333,56.5 L177.166667,56.5" id="Line-4-Copy-14" stroke="#405F88" stroke-width="3" opacity="0.15" stroke-linecap="round"></path>
                <path d="M114.833333,6.5 L138.166667,6.5" id="Line-4-Copy-14" stroke="#405F88" stroke-width="3" opacity="0.15" stroke-linecap="round"></path>
                <path d="M34.8333333,16.5 L58.1666667,16.5" id="Line-4-Copy-14" stroke="#405F88" stroke-width="3" opacity="0.15" stroke-linecap="round"></path>
                <circle id="Oval-4" fill="#F8F8F8" cx="89.75" cy="75" r="75"></circle>
                <g id="Group" transform="translate(30.000000, 14.000000)">
                    <g id="Group-22">
                        <polyline id="Stroke-663" stroke="#9FAFC3" fill="#FFFFFF" stroke-linejoin="round" points="97.7992547 78.5652174 104.347826 78.5652174 104.347826 66.826087 44.3478261 66.826087 44.3478261 78.5652174 52.0807453 78.5652174"></polyline>
                        <path d="M100.434783,99.4347826 L100.434783,81.826087 C100.434783,78.5978261 97.8136573,75.9565217 94.6035806,75.9565217 L56.7007673,75.9565217 C53.4936061,75.9565217 50.8695652,78.5978261 50.8695652,81.826087 L50.8695652,99.4347826" id="Stroke-653" stroke="#9FAFC3" fill="#FFFFFF" stroke-linecap="round" stroke-linejoin="round"></path>
                        <path d="M48.2608696,99.4347826 L103.043478,99.4347826" id="Stroke-652" stroke="#9FAFC3" stroke-linecap="round" stroke-linejoin="round"></path>
                        <path d="M60,87.6956522 L62.6086957,87.6956522" id="Stroke-654" stroke="#9FAFC3" stroke-linecap="round" stroke-linejoin="round"></path>
                        <path d="M69.1304348,87.6956522 L71.7391304,87.6956522" id="Stroke-655" stroke="#9FAFC3" stroke-linecap="round" stroke-linejoin="round"></path>
                        <path d="M78.2608696,87.6956522 L80.8695652,87.6956522" id="Stroke-656" stroke="#9FAFC3" stroke-linecap="round" stroke-linejoin="round"></path>
                        <path d="M86.0869565,87.6956522 L88.6956522,87.6956522" id="Stroke-657" stroke="#9FAFC3" stroke-linecap="round" stroke-linejoin="round"></path>
                        <path d="M56.0869565,92.9130435 L58.6956522,92.9130435" id="Stroke-658" stroke="#9FAFC3" stroke-linecap="round" stroke-linejoin="round"></path>
                        <path d="M65.2173913,92.9130435 L67.826087,92.9130435" id="Stroke-659" stroke="#9FAFC3" stroke-linecap="round" stroke-linejoin="round"></path>
                        <path d="M73.0434783,92.9130435 L75.6521739,92.9130435" id="Stroke-660" stroke="#9FAFC3" stroke-linecap="round" stroke-linejoin="round"></path>
                        <path d="M82.173913,92.9130435 L84.7826087,92.9130435" id="Stroke-661" stroke="#9FAFC3" stroke-linecap="round" stroke-linejoin="round"></path>
                        <path d="M91.3043478,92.9130435 L93.9130435,92.9130435" id="Stroke-662" stroke="#9FAFC3" stroke-linecap="round" stroke-linejoin="round"></path>
                        <path d="M44.3478261,64.2173913 L44.3478261,81.173913" id="Stroke-664" stroke="#9FAFC3" stroke-linecap="round" stroke-linejoin="round"></path>
                        <path d="M105.652174,64.2173913 L105.652174,81.173913" id="Stroke-665" stroke="#9FAFC3" stroke-linecap="round" stroke-linejoin="round"></path>
                        <path d="M41.7391304,73.3478261 L44.3478261,73.3478261" id="Stroke-666" stroke="#9FAFC3" stroke-linecap="round" stroke-linejoin="round"></path>
                        <path d="M105.652174,73.3478261 L108.26087,73.3478261" id="Stroke-667" stroke="#9FAFC3" stroke-linecap="round" stroke-linejoin="round"></path>
                        <polygon id="Stroke-668" stroke="#9FAFC3" fill="#FFFFFF" stroke-linecap="round" stroke-linejoin="round" points="88.0936455 38.1304348 56.0869565 38.1304348 56.0869565 66.826087 93.9130435 66.826087 93.9130435 43.8695652"></polygon>
                        <polygon id="Stroke-669" stroke="#9FAFC3" stroke-linecap="round" stroke-linejoin="round" points="79.3043478 81.173913 70.6956522 81.173913 67.826087 75.9565217 82.173913 75.9565217"></polygon>
                        <path d="M26.0278947,94.2173913 L26.0278947,91.6086957 L27.3248598,91.6086957 L27.3248598,89 L20.8400343,89 L20.8400343,91.6086957 L22.1369994,91.6086957 L22.1369994,94.2173913 C18.174771,94.7391304 15.9556637,96.6904348 15.6521739,100.73913 L32.6086957,100.73913 C32.3052058,96.6904348 29.9888261,94.7391304 26.0278947,94.2173913 L26.0278947,94.2173913 Z" id="Stroke-225" stroke="#9FAFC3" fill="#FFFFFF" stroke-linejoin="round"></path>
                        <path d="M101.086957,33.2739911 C99.6420846,35.7869347 97.9804879,37.7008043 96.1021664,39.0156 C94.2238449,40.3303956 90.8854416,40.9049058 86.0869565,40.7391304 L87.0029816,37.7909412 L95.0576241,32.9130435 L101.086957,33.2739911 Z" id="Path-3" fill="#FFFFFF"></path>
                        <path d="M100.434783,27.6956522 L84.7826087,43.3478261" id="Stroke-226" stroke="#9FAFC3" stroke-linecap="round" stroke-linejoin="round"></path>
                        <path d="M86.6990741,40.7391304 C85.0741274,39.171062 86.7665507,34.3924399 90.801376,30.501504 C92.8738715,28.4975657 95.1446657,27.0490958 96.5217391,26.3913043 L96.5217391,31.3068002" id="Stroke-227" stroke="#9FAFC3" fill="#FFFFFF" stroke-linecap="round" stroke-linejoin="round"></path>
                        <path d="M92.3043478,37 L97.826087,37" id="Stroke-228" stroke="#9FAFC3" fill="#FFFFFF" stroke-linecap="round" stroke-linejoin="round"></path>
                        <path d="M89.34245,39 L96.1304348,39 C92.5450783,41.8134599 88.3005077,42.1250843 87,41.0034575" id="Stroke-229" stroke="#9FAFC3" fill="#FFFFFF" stroke-linecap="round" stroke-linejoin="round"></path>
                        <path d="M100.818767,28 C101.945219,29.2620491 101.685838,31.7571189 100.270362,34.5217391 L95,34.5217391" id="Stroke-230" stroke="#9FAFC3" fill="#FFFFFF" stroke-linecap="round" stroke-linejoin="round"></path>
                        <path d="M0.652173913,102.695652 L118.91704,102.695652" id="Line-6" stroke="#BECCD4" stroke-linecap="square"></path>
                        <polygon id="Stroke-178" stroke="#7FCCD2" stroke-linecap="round" stroke-linejoin="round" points="72.9766953 16.3573793 67.826087 18.5652174 70.0340851 13.4139421 79.2313028 4.2173913 82.173913 7.16082858"></polygon>
                        <path d="M79.5652174,9.13043478 L76.9565217,6.52173913" id="Stroke-179" stroke="#7FCCD2" stroke-linecap="round" stroke-linejoin="round"></path>
                        <path d="M73.0434783,15.9565217 L70.4347826,13.3478261" id="Stroke-180" stroke="#7FCCD2" stroke-linecap="round" stroke-linejoin="round"></path>
                        <path d="M87.0869565,12.3913043 C87.0869565,19.2356144 81.5399622,24.7826087 74.6956522,24.7826087 C67.8513422,24.7826087 62.3043478,19.2356144 62.3043478,12.3913043 C62.3043478,5.54914934 67.8513422,0 74.6956522,0 C81.5399622,0 87.0869565,5.54914934 87.0869565,12.3913043 L87.0869565,12.3913043 Z" id="Stroke-181" stroke="#7FCCD2" stroke-linecap="round" stroke-linejoin="round"></path>
                        <path d="M9.7826087,105.304348 L5.17104273,109.915914" id="Line-7" stroke="#F1F1F1" stroke-linecap="round"></path>
                        <path d="M16.3043478,105.304348 L9.10085151,112.507844" id="Line-7-Copy" stroke="#F1F1F1" stroke-linecap="round"></path>
                        <path d="M22.826087,105.304348 L13.0217632,115.108672" id="Line-7-Copy-2" stroke="#F1F1F1" stroke-linecap="round"></path>
                        <path d="M30.6521739,105.304348 L16.9410026,119.015519" id="Line-7-Copy-3" stroke="#F1F1F1" stroke-linecap="round"></path>
                        <path d="M38.4782609,105.304348 L21.5217391,122.26087" id="Line-7-Copy-4" stroke="#F1F1F1" stroke-linecap="round"></path>
                        <path d="M46.3043478,105.304348 L26.7391304,124.869565" id="Line-7-Copy-5" stroke="#F1F1F1" stroke-linecap="round"></path>
                        <path d="M55.4347826,105.304348 L33.2608696,127.478261" id="Line-7-Copy-6" stroke="#F1F1F1" stroke-linecap="round"></path>
                        <path d="M64.5652174,105.304348 L40.4259711,129.443594" id="Line-7-Copy-7" stroke="#F1F1F1" stroke-linecap="round"></path>
                        <path d="M73.6956522,105.304348 L47.6086957,131.391304" id="Line-7-Copy-8" stroke="#F1F1F1" stroke-linecap="round"></path>
                        <path d="M82.826087,105.304348 L55.4347826,132.695652" id="Line-7-Copy-9" stroke="#F1F1F1" stroke-linecap="round"></path>
                        <path d="M91.9565217,105.304348 L64.5652174,132.695652" id="Line-7-Copy-10" stroke="#F1F1F1" stroke-linecap="round"></path>
                        <path d="M102.391304,105.304348 L75,132.695652" id="Line-7-Copy-11" stroke="#F1F1F1" stroke-linecap="round"></path>
                        <path d="M112.826087,105.304348 L89.2033431,128.927092" id="Line-7-Copy-12" stroke="#F1F1F1" stroke-linecap="round"></path>
                        <text id="TO" font-family="Arial-BoldMT, Arial" font-size="4" font-weight="bold" fill="#9FAFC3">
                            <tspan x="59.8313519" y="45.5">TO</tspan>
                        </text>
                        <polyline id="Path-20" stroke="#7F94AF" stroke-linecap="round" stroke-linejoin="round" points="67.826087 43.4808093 69.0200465 42.0434783 69.0200465 43.4808093 71.1208665 42.7621438 72.2379735 43.4808093 73.4374225 42.7621438 74.9086003 43.4808093 76.9891092 43.4808093 79.4895625 44.6521739 81.015635 43.3478261 82.173913 43.3478261"></polyline>
                    </g>
                </g>
                <g id="Group" transform="translate(52.000000, 42.000000)"></g>
                <g id="Group" transform="translate(88.000000, 21.000000)"></g>
            </g>
        </g>
    </g>
</svg>