<?xml version="1.0" encoding="UTF-8"?>
<svg width="183px" height="150px" viewBox="0 0 183 150" version="1.1" xmlns="http://www.w3.org/2000/svg" xmlns:xlink="http://www.w3.org/1999/xlink">
    <!-- Generator: Sketch 46.2 (44496) - http://www.bohemiancoding.com/sketch -->
    <title>Group 25</title>
    <desc>Created with Sketch.</desc>
    <defs></defs>
    <g id="Welcome-Page" stroke="none" stroke-width="1" fill="none" fill-rule="evenodd">
        <g id="Tablet-Web-Welcome" transform="translate(-304.000000, -1166.000000)">
            <g id="Group-25" transform="translate(305.000000, 1166.000000)">
                <path d="M54.1666667,145.5 L70.8333333,145.5" id="Line-4-Copy-14" stroke="#405F88" stroke-width="3" opacity="0.15" stroke-linecap="round"></path>
                <path d="M35.8333333,145.5 L47.1666667,145.5" id="Line-4-Copy-14" stroke="#405F88" stroke-width="3" opacity="0.15" stroke-linecap="round"></path>
                <path d="M27.8333333,125.5 L39.1666667,125.5" id="Line-4-Copy-14" stroke="#405F88" stroke-width="3" opacity="0.15" stroke-linecap="round"></path>
                <path d="M15.1666667,125.5 L19.8333333,125.5" id="Line-4-Copy-14" stroke="#405F88" stroke-width="3" opacity="0.15" stroke-linecap="round"></path>
                <path d="M15.6666667,105.5 L22.3333333,105.5" id="Line-4-Copy-14" stroke="#405F88" stroke-width="3" opacity="0.15" stroke-linecap="round"></path>
                <path d="M1.66666667,105.5 L8.33333333,105.5" id="Line-4-Copy-14" stroke="#405F88" stroke-width="3" opacity="0.15" stroke-linecap="round"></path>
                <path d="M0.666666667,65.5 L3.33333333,65.5" id="Line-4-Copy-14" stroke="#405F88" stroke-width="3" opacity="0.15" stroke-linecap="round"></path>
                <path d="M8.66666667,65.5 L11.3333333,65.5" id="Line-4-Copy-14" stroke="#405F88" stroke-width="3" opacity="0.15" stroke-linecap="round"></path>
                <path d="M12,35.5 L28,35.5" id="Line-4-Copy-14" stroke="#405F88" stroke-width="3" opacity="0.15" stroke-linecap="round"></path>
                <path d="M52,5.5 L68,5.5" id="Line-4-Copy-14" stroke="#405F88" stroke-width="3" opacity="0.15" stroke-linecap="round"></path>
                <path d="M122,15.5 L138,15.5" id="Line-4-Copy-14" stroke="#405F88" stroke-width="3" opacity="0.15" stroke-linecap="round"></path>
                <path d="M142.5,15.5 L148.5,15.5" id="Line-4-Copy-14" stroke="#405F88" stroke-width="3" opacity="0.15" stroke-linecap="round"></path>
                <path d="M151.166667,35.5 L163.833333,35.5" id="Line-4-Copy-14" stroke="#405F88" stroke-width="3" opacity="0.15" stroke-linecap="round"></path>
                <path d="M167.833333,35.5 L175.166667,35.5" id="Line-4-Copy-14" stroke="#405F88" stroke-width="3" opacity="0.15" stroke-linecap="round"></path>
                <path d="M159.833333,68.5 L167.166667,68.5" id="Line-4-Copy-14" stroke="#405F88" stroke-width="3" opacity="0.15" stroke-linecap="round"></path>
                <path d="M172.833333,68.5 L180.166667,68.5" id="Line-4-Copy-14" stroke="#405F88" stroke-width="3" opacity="0.15" stroke-linecap="round"></path>
                <path d="M162.833333,88.5 L170.166667,88.5" id="Line-4-Copy-14" stroke="#405F88" stroke-width="3" opacity="0.15" stroke-linecap="round"></path>
                <path d="M153.833333,110.5 L161.166667,110.5" id="Line-4-Copy-14" stroke="#405F88" stroke-width="3" opacity="0.15" stroke-linecap="round"></path>
                <path d="M166.833333,110.5 L174.166667,110.5" id="Line-4-Copy-14" stroke="#405F88" stroke-width="3" opacity="0.15" stroke-linecap="round"></path>
                <path d="M133.833333,135.5 L141.166667,135.5" id="Line-4-Copy-14" stroke="#405F88" stroke-width="3" opacity="0.15" stroke-linecap="round"></path>
                <path d="M148.166667,135.5 L152.833333,135.5" id="Line-4-Copy-14" stroke="#405F88" stroke-width="3" opacity="0.15" stroke-linecap="round"></path>
                <path d="M148.166667,121.5 L152.833333,121.5" id="Line-4-Copy-14" stroke="#405F88" stroke-width="3" opacity="0.15" stroke-linecap="round"></path>
                <circle id="Oval-4" fill="#F8F8F8" cx="90" cy="75" r="75"></circle>
                <g id="Group" transform="translate(96.000000, 79.000000)" stroke="#E5E5E5" stroke-linejoin="round">
                    <path d="M0,4.43478261 C0,1.98678261 1.92769231,0 4.30769231,0 L23.6923077,0 C26.0723077,0 28,1.98678261 28,4.43478261 L28,46.5652174 C28,49.0154348 26.0723077,51 23.6923077,51 L4.30769231,51 C1.92769231,51 0,49.0154348 0,46.5652174 L0,4.43478261 L0,4.43478261 Z" id="Stroke-309" fill="#FFFFFF" stroke-linecap="round"></path>
                    <path d="M0,9 L28,9" id="Stroke-310" stroke-linecap="round"></path>
                    <path d="M0,43 L28,43" id="Stroke-311" stroke-linecap="round"></path>
                    <path d="M19,47 L8,47" id="Stroke-312" stroke-linecap="round"></path>
                    <path d="M14.5,3 C15.328,3 16,3.672 16,4.5 C16,5.328 15.328,6 14.5,6 C13.672,6 13,5.328 13,4.5 C13,3.672 13.672,3 14.5,3 L14.5,3 Z" id="Stroke-313"></path>
                </g>
                <g id="Group-23" transform="translate(54.000000, 25.000000)" stroke-linecap="round" stroke-linejoin="round">
                    <g id="Group-24" transform="translate(0.000000, 17.975309)" stroke="#9FAFC3">
                        <g id="Stroke-1-+-Stroke-2" transform="translate(0.280864, 0.280864)">
                            <polygon id="Stroke-1" fill="#FFFFFF" points="0 71.6203704 0 0 33.6210966 0 51.9598765 18.6835749 51.9598765 71.6203704"></polygon>
                            <polyline id="Stroke-2" points="32.2993827 0 32.2993827 19.6604938 51.9598765 19.6604938"></polyline>
                        </g>
                    </g>
                    <g id="Group" transform="translate(40.444444, 0.000000)" stroke="#1EC1B0">
                        <polygon id="Stroke-133" fill="#FFFFFF" points="26.4012346 17.4135802 12.9197531 17.4135802 8.42592593 21.9074074 8.42592593 17.4135802 0.561728395 17.4135802 0.561728395 0.561728395 26.4012346 0.561728395"></polygon>
                        <path d="M7.30246914,6.17901235 C7.30246914,4.93871605 8.30908642,3.93209877 9.54938272,3.93209877 C10.789679,3.93209877 11.7962963,4.93871605 11.7962963,6.17901235" id="Stroke-134"></path>
                        <path d="M19.6604938,6.17901235 C19.6604938,4.93871605 18.6538765,3.93209877 17.4135802,3.93209877 C16.173284,3.93209877 15.1666667,4.93871605 15.1666667,6.17901235" id="Stroke-135"></path>
                        <path d="M6.17901235,8.98765432 C6.17901235,11.7693333 8.45401235,14.0432099 11.2345679,14.0432099 L15.7283951,14.0432099 C18.5089506,14.0432099 20.7839506,11.7693333 20.7839506,8.98765432" id="Stroke-136"></path>
                    </g>
                    <g id="Stroke-1310-+-Stroke-1311" transform="translate(24.573273, 53.798947) rotate(-30.000000) translate(-24.573273, -53.798947) translate(13.573273, 43.298947)" stroke="#FFBD00">
                        <path d="M19.0254965,15.3132045 L19.0254965,10.208803 C19.0254965,6.82040848 16.882576,3.93874181 13.8839721,2.82226999 C13.6779399,1.48770102 12.5289855,0.4640365 11.136876,0.4640365 C9.74476651,0.4640365 8.59209984,1.48770102 8.38699571,2.82226999 C5.38746377,3.93874181 3.2482555,6.82040848 3.2482555,10.208803 L3.2482555,15.3132045 C3.2482555,16.8510215 2.00092539,18.0974235 0.4640365,18.0974235 L21.8097155,18.0974235 C20.2700424,18.0974235 19.0254965,16.8510215 19.0254965,15.3132045 L19.0254965,15.3132045 Z" id="Stroke-1310" fill="#FFFFFF"></path>
                        <path d="M13.921095,18.0974235 C13.921095,19.6352405 12.6737649,20.8816425 11.136876,20.8816425 C9.5972029,20.8816425 8.352657,19.6352405 8.352657,18.0974235" id="Stroke-1311"></path>
                    </g>
                </g>
            </g>
        </g>
    </g>
</svg>