<?xml version="1.0" encoding="UTF-8"?>
<svg width="178px" height="150px" viewBox="0 0 178 150" version="1.1" xmlns="http://www.w3.org/2000/svg" xmlns:xlink="http://www.w3.org/1999/xlink">
    <!-- Generator: Sketch 46.2 (44496) - http://www.bohemiancoding.com/sketch -->
    <title>Group 12</title>
    <desc>Created with Sketch.</desc>
    <defs></defs>
    <g id="Welcome-Page" stroke="none" stroke-width="1" fill="none" fill-rule="evenodd">
        <g id="Tablet-Web-Welcome" transform="translate(-309.000000, -152.000000)">
            <g id="Group-17" transform="translate(311.000000, 145.000000)">
                <g id="Group-12" transform="translate(0.000000, 7.000000)">
                    <g id="Group-8">
                        <path d="M51.875,3.125 L88.3184493,3.125" id="Line-4" stroke="#405F88" stroke-width="3" opacity="0.15" stroke-linecap="round"></path>
                        <path d="M129.375,46.875 L165.818449,46.875" id="Line-4-Copy-3" stroke="#405F88" stroke-width="3" opacity="0.15" stroke-linecap="round"></path>
                        <path d="M10.625,130.625 L47.0684493,130.625" id="Line-4-Copy-8" stroke="#405F88" stroke-width="3" opacity="0.15" stroke-linecap="round"></path>
                        <path d="M114.375,119.375 L150.818449,119.375" id="Line-4-Copy-12" stroke="#405F88" stroke-width="3" opacity="0.15" stroke-linecap="round"></path>
                        <path d="M3.125,56.875 L39.5684493,56.875" id="Line-4-Copy-5" stroke="#405F88" stroke-width="3" opacity="0.15" stroke-linecap="round"></path>
                        <path d="M21.875,24.375 L58.3184493,24.375" id="Line-4-Copy-6" stroke="#405F88" stroke-width="3" opacity="0.15" stroke-linecap="round"></path>
                        <path d="M171.875,46.875 L174.375,46.875" id="Line-4-Copy-4" stroke="#405F88" stroke-width="3" opacity="0.15" stroke-linecap="round"></path>
                        <path d="M6.875,98.125 L9.375,98.125" id="Line-4-Copy-14" stroke="#405F88" stroke-width="3" opacity="0.15" stroke-linecap="round"></path>
                        <path d="M0.208333333,98.125 L1.04166667,98.125" id="Line-4-Copy-14" stroke="#405F88" stroke-width="3" opacity="0.15" stroke-linecap="round"></path>
                        <path d="M55.2083333,145.625 L56.0416667,145.625" id="Line-4-Copy-14" stroke="#405F88" stroke-width="3" opacity="0.15" stroke-linecap="round"></path>
                        <path d="M156.875,119.375 L159.375,119.375" id="Line-4-Copy-9" stroke="#405F88" stroke-width="3" opacity="0.15" stroke-linecap="round"></path>
                        <path d="M1.875,130.625 L4.375,130.625" id="Line-4-Copy-11" stroke="#405F88" stroke-width="3" opacity="0.15" stroke-linecap="round"></path>
                        <path d="M156.875,94.375 L159.375,94.375" id="Line-4-Copy-9" stroke="#405F88" stroke-width="3" opacity="0.15" stroke-linecap="round"></path>
                        <path d="M99.375,148.125 L101.875,148.125" id="Line-4-Copy-10" stroke="#405F88" stroke-width="3" opacity="0.15" stroke-linecap="round"></path>
                        <path d="M108.125,148.125 L110.625,148.125" id="Line-4-Copy-10" stroke="#405F88" stroke-width="3" opacity="0.15" stroke-linecap="round"></path>
                        <path d="M116.875,148.125 L119.375,148.125" id="Line-4-Copy-10" stroke="#405F88" stroke-width="3" opacity="0.15" stroke-linecap="round"></path>
                        <path d="M165.625,94.375 L168.125,94.375" id="Line-4-Copy-9" stroke="#405F88" stroke-width="3" opacity="0.15" stroke-linecap="round"></path>
                        <path d="M13.125,24.375 L15.625,24.375" id="Line-4-Copy-7" stroke="#405F88" stroke-width="3" opacity="0.15" stroke-linecap="round"></path>
                        <path d="M138.125,14.375 L146.030694,14.375" id="Line-4-Copy" stroke="#405F88" stroke-width="3" opacity="0.15" stroke-linecap="round"></path>
                        <path d="M124.375,14.375 L132.280694,14.375" id="Line-4-Copy-13" stroke="#405F88" stroke-width="3" opacity="0.15" stroke-linecap="round"></path>
                        <path d="M151.339286,14.375 L152.468671,14.375" id="Line-4-Copy-2" stroke="#405F88" stroke-width="3" opacity="0.15" stroke-linecap="round"></path>
                        <circle id="Oval-4" fill="#F8F8F8" cx="83.75" cy="75" r="75"></circle>
                        <g id="Group-7" transform="translate(13.750000, 6.250000)">
                            <g id="Group-2">
                                <g id="Group" transform="translate(25.933092, 63.430568) rotate(-20.000000) translate(-25.933092, -63.430568) translate(5.433092, 43.930568)">
                                    <polygon id="Path-2" fill="#FFFFFF" points="8.53010018 4.62279461 19.7909735 5.29410325 19.8845779 24.0911473 6.83716987 6.97320443"></polygon>
                                    <path d="M19.8323294,22.4725466 L19.8323294,34.9368279 C19.8323294,36.9044038 18.216896,38.4980512 16.2264513,38.4980512 L3.60587807,38.4980512 C1.61543338,38.4980512 0,36.9044038 0,34.9368279 L0,8.22765368 C0,6.26185845 1.61543338,4.66643044 3.60587807,4.66643044 L9.01469518,4.66643044" id="Stroke-258" stroke="#9FAFC3" fill="#FFFFFF" stroke-linecap="round" stroke-linejoin="round"></path>
                                    <path d="M40.8312664,14.874247 C40.8312664,16.3231737 39.6291939,17.4991142 38.1480689,17.4991142 L16.6824888,17.4991142 C15.2013638,17.4991142 13.9992913,16.3231737 13.9992913,14.874247 L13.9992913,2.62486713 C13.9992913,1.17594047 15.2013638,0 16.6824888,0 L38.1480689,0 C39.6291939,0 40.8312664,1.17594047 40.8312664,2.62486713 L40.8312664,14.874247 L40.8312664,14.874247 Z" id="Stroke-254" stroke="#7F94AF" fill="#FFFFFF" stroke-linecap="round" stroke-linejoin="round"></path>
                                    <polyline id="Stroke-255" stroke="#7F94AF" stroke-linecap="round" stroke-linejoin="round" points="37.3314436 4.66643044 27.4152789 10.4994685 17.4991142 4.66643044"></polyline>
                                    <path d="M37.3314436,12.8326837 L31.7182797,8.12066722" id="Stroke-256" stroke="#7F94AF" stroke-linecap="round" stroke-linejoin="round"></path>
                                    <path d="M17.4991142,12.8326837 L23.8934417,9.02119538" id="Stroke-257" stroke="#7F94AF" stroke-linecap="round" stroke-linejoin="round"></path>
                                    <path d="M9.33286089,11.6660761 L0,11.6660761" id="Stroke-259" stroke="#9FAFC3" stroke-linecap="round" stroke-linejoin="round"></path>
                                    <path d="M19.8323294,31.4984055 L0,31.4984055" id="Stroke-260" stroke="#9FAFC3" stroke-linecap="round" stroke-linejoin="round"></path>
                                    <path d="M6.99964567,8.16625328 L9.33286089,8.16625328" id="Stroke-261" stroke="#9FAFC3" stroke-linecap="round" stroke-linejoin="round"></path>
                                    <path d="M10.4994685,34.9982283 C10.4994685,35.6421957 9.97682829,36.1648359 9.33286089,36.1648359 C8.68889349,36.1648359 8.16625328,35.6421957 8.16625328,34.9982283 C8.16625328,34.3542609 8.68889349,33.8316207 9.33286089,33.8316207 C9.97682829,33.8316207 10.4994685,34.3542609 10.4994685,34.9982283 L10.4994685,34.9982283 Z" id="Stroke-262" stroke="#9FAFC3" stroke-linejoin="round"></path>
                                </g>
                                <g id="Group" transform="translate(98.628925, 38.537235) rotate(-345.000000) translate(-98.628925, -38.537235) translate(75.628925, 15.537235)" stroke="#9FAFC3" stroke-linecap="round" stroke-linejoin="round">
                                    <path d="M45.7192843,22.8596422 C45.7192843,35.484128 35.484128,45.7192843 22.8596422,45.7192843 C10.2331685,45.7192843 0,35.484128 0,22.8596422 C0,10.2331685 10.2331685,0 22.8596422,0 C35.484128,0 45.7192843,10.2331685 45.7192843,22.8596422 L45.7192843,22.8596422 Z" id="Stroke-1" fill="#FFFFFF"></path>
                                    <path d="M39.187958,26.1253053 C39.187958,32.923483 32.2427633,39.187958 23.676058,39.187958 C15.1093526,39.187958 8.16415792,32.923483 8.16415792,26.1253053 L39.187958,26.1253053 L39.187958,26.1253053 Z" id="Stroke-3"></path>
                                    <path d="M9.7969895,17.9611474 C9.7969895,16.1568685 11.6237198,14.6954843 13.8790685,14.6954843 C16.132376,14.6954843 17.9611474,16.1568685 17.9611474,17.9611474" id="Stroke-5"></path>
                                    <path d="M35.9222948,17.9611474 C35.9222948,16.1568685 34.0935235,14.6954843 31.8402159,14.6954843 C29.5848673,14.6954843 27.7581369,16.1568685 27.7581369,17.9611474" id="Stroke-7"></path>
                                </g>
                                <g id="Stroke-761-+-Stroke-762" transform="translate(55.000000, 0.000000)" stroke="#1EC1B0" stroke-linecap="round" stroke-linejoin="round">
                                    <path d="M18.8202247,9.41011236 C18.8202247,14.6077675 14.6061309,18.8202247 9.41011236,18.8202247 C4.21163898,18.8202247 0,14.6077675 0,9.41011236 C0,4.21245725 4.21163898,0 9.41011236,0 C14.6061309,0 18.8202247,4.21245725 18.8202247,9.41011236 L18.8202247,9.41011236 Z" id="Stroke-762" fill="#FFFFFF"></path>
                                    <polyline id="Stroke-761" points="13.5923845 6.27340824 7.31897628 12.3423845 5.2278402 10.174893"></polyline>
                                </g>
                                <g id="Group" transform="translate(68.750000, 75.000000)" stroke-linejoin="round">
                                    <path d="M58.9522472,42.145567 C58.9522472,44.3922637 57.2332809,46.2137019 55.1095506,46.2137019 L3.87359551,46.2137019 C1.75242697,46.2137019 0.0308988764,44.3922637 0.0308988764,42.145567 L0.0308988764,4.16947714 C0.0308988764,1.92278051 1.75242697,0.10134231 3.87359551,0.10134231 L55.1095506,0.10134231 C57.2332809,0.10134231 58.9522472,1.92278051 58.9522472,4.16947714 L58.9522472,42.145567 L58.9522472,42.145567 Z" id="Stroke-21" stroke="#9FAFC3" fill="#FFFFFF" stroke-linecap="round"></path>
                                    <g transform="translate(19.000000, 7.000000)" stroke="#BECCD4">
                                        <path d="M3.4785,6.5 L7.9785,6.5" id="Stroke-403" stroke-linecap="round"></path>
                                        <path d="M3.4785,9.5 L11.4785,9.5" id="Stroke-404" stroke-linecap="round"></path>
                                        <path d="M3.4785,12.5 L9.4785,12.5" id="Stroke-405" stroke-linecap="round"></path>
                                        <path d="M3.4785,15.5 L8.4785,15.5" id="Stroke-406" stroke-linecap="round"></path>
                                        <path d="M17.9766,23.4658 C17.9766,23.4658 23.4766,19.4658 23.4766,16.5028 C23.4766,13.0838 18.9766,12.0028 17.9766,16.1618 C16.9766,12.0028 12.4766,13.0838 12.4766,16.5028 C12.4766,19.4658 17.9766,23.4658 17.9766,23.4658 L17.9766,23.4658 Z" id="Stroke-407"></path>
                                        <polyline id="Stroke-408" points="12.4805 21.5 0.5005 21.5 0.5005 0.5 11.5005 0.5 16.5005 5.5 16.5005 11"></polyline>
                                        <polyline id="Stroke-409" stroke-linecap="round" points="11.5 0.5 11.5 5.5 16.5 5.5"></polyline>
                                    </g>
                                    <path d="M11.5589888,51.3370412 L47.4241573,51.3370412" id="Stroke-22" stroke="#9FAFC3" stroke-linecap="round"></path>
                                    <path d="M29.491573,46.2134457 L29.491573,51.3370412" id="Stroke-23" stroke="#9FAFC3" stroke-linecap="round"></path>
                                    <path d="M30.7724719,41.0898502 C30.7724719,41.7969064 30.1986292,42.3707491 29.491573,42.3707491 C28.7845169,42.3707491 28.2106742,41.7969064 28.2106742,41.0898502 C28.2106742,40.382794 28.7845169,39.8089513 29.491573,39.8089513 C30.1986292,39.8089513 30.7724719,40.382794 30.7724719,41.0898502 L30.7724719,41.0898502 Z" id="Stroke-24" stroke="#9FAFC3"></path>
                                    <path d="M0.0308988764,35.9662547 L58.9522472,35.9662547" id="Stroke-25" stroke="#9FAFC3"></path>
                                </g>
                                <path d="M43.9147034,45.2721961 C50.8379644,45.2858799 57.4398592,47.3688094 63.7203876,51.5209847 C70.0009161,55.67316 74.8357381,62.0544301 78.2248535,70.6647949" id="Path-18" stroke="#0065BD" stroke-linecap="round"></path>
                                <polyline id="Path-19" stroke="#0065BD" stroke-linecap="round" stroke-linejoin="round" transform="translate(77.291256, 68.592228) rotate(17.000000) translate(-77.291256, -68.592228) " points="75.4567716 70.4286912 79.1257404 70.4286912 79.1257404 66.7557651"></polyline>
                            </g>
                            <path d="M117.920935,128.125 L29.4105254,128.125" id="Line-5" stroke="#BECCD4" stroke-linecap="square"></path>
                        </g>
                    </g>
                    <g id="Group-4" transform="translate(47.000000, 136.000000)" stroke="#F1F1F1" stroke-linecap="round">
                        <path d="M4.95855561,6.29240753 C6.37451329,4.87644985 8.47198246,2.77898068 11.2509631,0" id="Path-21-Copy"></path>
                        <path d="M11,8.25096314 C12.8566844,6.39427879 15.6070054,3.64395774 19.2509631,0" id="Path-21-Copy-2"></path>
                        <path d="M17,11 C19.4752902,8.52470984 23.1419568,4.85804317 28,0" id="Path-21-Copy-3"></path>
                        <path d="M25,12 C27.7003165,9.29968346 31.7003165,5.29968346 37,0" id="Path-21-Copy-4"></path>
                        <path d="M33,13 C35.9253429,10.0746571 40.2586763,5.74132375 46,0" id="Path-21-Copy-5"></path>
                        <path d="M41,13 C43.9253429,10.0746571 48.2586763,5.74132375 54,0" id="Path-21-Copy-6"></path>
                        <path d="M52,11 C54.4752902,8.52470984 58.1419568,4.85804317 63,0" id="Path-21-Copy-7"></path>
                        <path d="M64,8 C65.800211,6.19978897 68.4668777,3.53312231 72,0" id="Path-21-Copy-8"></path>
                        <path d="M0,4.16847101 C0,4.16847101 1.38949034,2.77898068 4.16847101,0" id="Path-21"></path>
                    </g>
                </g>
            </g>
        </g>
    </g>
</svg>