<?xml version="1.0" encoding="UTF-8"?>
<svg width="33px" height="30px" viewBox="0 0 33 30" version="1.1" xmlns="http://www.w3.org/2000/svg" xmlns:xlink="http://www.w3.org/1999/xlink">
    <!-- Generator: Sketch 45 (43475) - http://www.bohemiancoding.com/sketch -->
    <title>Page 1</title>
    <desc>Created with Sketch.</desc>
    <defs>
        <polygon id="path-1" points="1.52554253e-05 29.5276385 32.8080889 29.5276385 32.8080889 4.62461059e-05 1.52554253e-05 4.62461059e-05"></polygon>
    </defs>
    <g id="App-Partial-Release" stroke="none" stroke-width="1" fill="none" fill-rule="evenodd">
        <g id="App-Alert" transform="translate(-69.000000, -449.000000)">
            <g id="Group-2" transform="translate(24.000000, 431.000000)">
                <g id="Group" transform="translate(45.000000, 14.000000)">
                    <g id="Page-1" transform="translate(0.000000, 4.000000)">
                        <mask id="mask-2" fill="white">
                            <use xlink:href="#path-1"></use>
                        </mask>
                        <g id="Clip-2"></g>
                        <path d="M32.8081042,18.0953296 C32.8081042,18.5046326 32.473095,18.837506 32.0627241,18.837506 L28.1247649,18.837506 C28.0813632,18.6085983 28.0108068,18.379767 27.8918908,18.1651231 C27.7893743,17.9824394 27.5302609,17.4897654 27.1692413,16.8031188 C26.6480397,15.8119738 25.899456,14.3945922 25.0980885,12.9020014 L32.0623427,12.9020014 C32.4727899,12.9020014 32.8077991,13.2355613 32.8077991,13.6433388 L32.8077991,18.0953296 L32.8081042,18.0953296 Z M31.0634174,29.527669 C30.818873,28.7475829 28.9516089,28.6960958 28.1156879,27.5216569 C27.2770972,26.3510318 27.9702274,25.7479849 28.2613772,25.4697259 C31.6518955,23.568366 31.0634174,29.527669 31.0634174,29.527669 L31.0634174,29.527669 Z M26.7555142,24.6990218 L25.5851179,22.8581496 C25.3430143,22.4751622 25.468719,22.0023965 25.8613174,21.800491 L26.9770229,21.2292516 C27.3703841,21.0291767 27.8627529,21.1914944 28.0720574,21.5920256 L28.995392,23.3601294 C29.2054592,23.7599741 29.0623633,24.2733192 28.6835711,24.4994046 L27.8857886,24.9743822 C27.5070727,25.2031373 26.9976178,25.0785005 26.7555142,24.6990218 L26.7555142,24.6990218 Z M24.2098413,20.6088897 C23.4321198,20.2204866 19.5582333,11.3220733 18.5657153,9.00035008 C17.5721295,6.67855062 14.5719975,0.49834898 15.5424714,0.0174216957 C16.2327031,-0.327350917 18.7111758,4.53920604 20.5692866,7.46084883 C22.4246515,10.3826442 26.3045638,17.9159258 26.7819823,18.7738909 C27.25696,19.6339918 26.3249298,20.3509205 25.8066267,20.5656406 C25.2877897,20.7802081 24.9874104,20.9942418 24.2098413,20.6088897 L24.2098413,20.6088897 Z M13.0543878,18.8375823 L16.4795359,12.9020014 L18.4517573,12.9020014 L21.2330502,18.8375823 L13.0543878,18.8375823 Z M6.20691389,25.5711745 L4.26390664,24.4607321 C3.90868406,24.2579112 3.78351329,23.8028418 3.99014803,23.4490685 L12.9873402,7.85276071 C13.1914578,7.49837718 13.6515615,7.37412174 14.0065552,7.57968859 L15.9495625,8.6871562 C16.3050139,8.89272305 16.426981,9.3480975 16.2233211,9.70118432 L7.22628141,25.29856 C7.02246893,25.6523333 6.56198391,25.7737665 6.20691389,25.5711745 L6.20691389,25.5711745 Z M5.60401948,27.2115904 L3.09335785,28.912494 C2.75552646,29.1420882 2.5166265,28.9968565 2.56346065,28.5913673 L2.89846979,25.6811661 C2.94507512,25.2758294 3.27382953,25.1102318 3.62935722,25.3128238 L5.57236447,26.4228086 C5.92728194,26.6263922 5.94185087,26.9826827 5.60401948,27.2115904 L5.60401948,27.2115904 Z M1.52554253e-05,18.0953296 L1.52554253e-05,13.6433388 C1.52554253e-05,13.2355613 0.335024396,12.9020014 0.745395338,12.9020014 L8.61246563,12.9020014 L5.18731753,18.8375823 L0.745395338,18.8375823 C0.335024396,18.8375823 1.52554253e-05,18.5047089 1.52554253e-05,18.0953296 L1.52554253e-05,18.0953296 Z" id="Fill-1" fill="#FFFFFF" mask="url(#mask-2)"></path>
                    </g>
                </g>
            </g>
        </g>
    </g>
</svg>