<?xml version="1.0" encoding="UTF-8"?>
<svg width="128px" height="14px" viewBox="0 0 128 14" version="1.1" xmlns="http://www.w3.org/2000/svg" xmlns:xlink="http://www.w3.org/1999/xlink">
    <!-- Generator: Sketch 42 (36781) - http://www.bohemiancoding.com/sketch -->
    <title>Imported Layers Copy 28</title>
    <desc>Created with Sketch.</desc>
    <defs></defs>
    <g id="+Email" stroke="none" stroke-width="1" fill="none" fill-rule="evenodd">
        <g id="Bulk-Email-Entry-Multiple" transform="translate(-16.000000, -67.000000)" fill="#FFFFFF">
            <path d="M90.9504421,67 C87.9372584,67 85.9266162,69.3482819 85.9266162,72.5738339 C85.9266162,75.6589188 87.7649177,77.5976598 90.6898925,77.5976598 C92.5937947,77.5976598 94.081114,76.6584953 94.6277863,75.7589877 L94.3527823,75.4406205 C93.7531106,76.2519193 92.4614814,76.8449198 91.1387198,76.8449198 C88.7752422,76.8449198 87.3598242,74.8672632 87.3598242,71.9222746 C87.3598242,69.0847673 88.7370678,67.4921904 90.9938053,67.4921904 C92.7375973,67.4921904 93.743845,68.3824324 94.2367766,70.1273363 L94.5406894,70.1273363 L94.4395087,67.1160057 L94.1500503,67.1160057 C94.0440515,67.3272621 93.8639276,67.4199185 93.5996717,67.4199185 C93,67.4199185 92.4492508,67 90.9504421,67 L90.9504421,67 Z M16.4343728,67.2460952 L16.4343728,67.5503786 C16.9632551,67.656748 17.7323026,67.7905438 17.6796738,68.9546778 L17.3609361,75.1363372 C17.2905173,76.457987 16.9161857,76.9420236 16,77.0476518 L16,77.3515646 L19.2429714,77.3515646 L19.2429714,77.0476518 C18.2563668,76.8716048 17.974321,76.5272939 18.0269498,75.2234341 L18.3164081,69.0124954 L21.5593795,77.2792926 L21.9648435,77.2792926 L25.135543,69.0124954 L25.4394557,75.6285276 C25.4928258,76.651824 25.2130037,76.959443 24.4550749,77.0476518 L24.4550749,77.3515646 L28.1035104,77.3515646 L28.1035104,77.0476518 C27.2040028,76.959443 26.8537618,76.5395245 26.8003918,75.3246148 L26.4964791,68.998041 C26.4616403,68.081114 26.8474612,67.6919574 27.6402287,67.6226505 L27.6402287,67.3042834 L25.1210886,67.3042834 L22.1386668,75.0785196 L19.0984275,67.2460952 L16.4343728,67.2460952 L16.4343728,67.2460952 Z M34.4879017,67.2460952 L34.4879017,67.5503786 C35.5812464,67.6382168 35.6461058,67.8657807 35.6461058,70.4746122 L35.6461058,73.9636787 C35.6461058,76.7845079 35.5293588,76.959443 34.4879017,77.0476518 L34.4879017,77.3515646 L38.1074284,77.3515646 L38.1074284,77.0476518 C36.9607137,76.8901361 36.9636787,76.8067454 36.9636787,73.7757717 L36.9636787,73.2109387 L37.4414147,72.6753852 C38.6400169,74.1560333 39.9286811,75.7827077 41.321491,77.3515646 L47.0543231,77.3515646 L47.0543231,77.0476518 C46.0669773,76.9779743 46.0410335,76.9961349 46.0410335,74.7746069 L46.0410335,71.0538995 L43.6812622,71.0538995 L43.6812622,71.3578123 C44.7027056,71.3937629 44.8250119,71.4475036 44.8250119,73.2109387 L44.8250119,74.7601525 C44.8250119,76.9761211 44.8024038,76.9968762 43.7246254,77.0476518 C43.1605337,76.9946524 42.5960714,76.836766 40.8148462,74.7746069 C40.1277069,73.9633081 38.9939641,72.5982951 38.3246148,71.7343676 L40.481654,69.3308625 C41.539048,68.1670991 42.1142585,67.5859586 43.1019749,67.5503786 L43.1019749,67.2460952 L39.7144597,67.2460952 L39.7144597,67.5503786 C40.1551332,67.6382168 40.3222852,67.7979563 40.3222852,68.1148409 C40.3222852,68.3268386 40.2796633,68.6985757 39.6273627,69.4035051 L36.9636787,72.342193 L36.9636787,70.4457034 C36.9636787,67.8554032 37.0841319,67.6908456 38.1074284,67.5503786 L38.1074284,67.2460952 L34.4879017,67.2460952 L34.4879017,67.2460952 Z M45.3750199,67.6515593 C44.9165564,67.6515593 44.5789167,68.0047652 44.5789167,68.4624874 C44.5789167,68.9209509 44.9165564,69.273045 45.3750199,69.273045 C45.833854,69.273045 46.185948,68.9209509 46.185948,68.4624874 C46.185948,68.0047652 45.833854,67.6515593 45.3750199,67.6515593 L45.3750199,67.6515593 Z M78.630116,67.767565 C77.6790914,67.767565 76.6898925,68.3609361 76.6898925,69.6640546 C76.6898925,70.1584688 76.8451845,70.6106317 77.109811,71.1406258 C75.8052099,71.5460899 75.1121406,72.6776089 75.1121406,73.9636787 C75.1121406,76.308625 76.8955896,77.5832054 78.9051199,77.5832054 C80.1563509,77.5832054 81.1440673,77.1866363 82.061365,76.4105469 C82.6247154,76.8171229 83.1880659,77.2103563 83.5234818,77.3515646 L85.6949754,77.3515646 L85.6949754,77.0476518 C84.9893048,76.9776036 83.9263515,76.3994282 82.7996506,75.57071 C83.2043734,74.9013607 83.3022185,73.9329168 83.407476,73.2109387 C83.4967967,72.5942182 83.9489596,72.6094139 84.247313,72.5738339 L84.247313,72.2988299 L81.3953513,72.2988299 L81.3953513,72.5738339 C82.0654418,72.6620427 82.7125536,72.7495102 82.7125536,73.7902261 C82.7125536,74.3368984 82.6269392,74.8817176 82.3797321,75.2523429 C79.8768995,73.2954413 77.5730926,70.586541 77.5730926,69.2296818 C77.5730926,68.55885 77.9778154,68.245301 78.630116,68.245301 C79.4414147,68.245301 80.2145391,68.7790014 80.5844231,69.8378779 L80.8594271,69.8378779 L80.8305183,67.9410176 L80.54106,67.9410176 C80.5243818,68.0644359 80.4080055,68.1437497 80.338328,68.1437497 C79.9858633,68.1437497 79.4951554,67.767565 78.630116,67.767565 L78.630116,67.767565 Z M58.0863557,70.9234394 C56.7821253,70.9234394 56.0304972,71.7354794 56.0304972,72.704294 C56.0304972,74.8201938 59.6500238,74.3936041 59.6500238,76.1210886 C59.6500238,76.702229 59.1033515,77.0476518 58.187907,77.0476518 C57.2883994,77.0476518 56.5226876,76.5691746 56.2765924,75.4406205 L55.9004077,75.4406205 C55.9004077,75.8998253 55.9715677,76.7463335 56.0594059,76.8882829 C56.3069836,77.293747 57.3154551,77.5109334 58.1441732,77.5109334 C59.6426113,77.5109334 60.5621327,76.639964 60.5621327,75.5996188 C60.5621327,73.2724625 56.9715148,73.639011 56.9715148,72.139461 C56.9715148,71.6109493 57.4470271,71.3433579 58.0285381,71.3433579 C59.2093503,71.3433579 59.7326733,72.4348494 59.8383015,72.8054747 L60.1133054,72.8054747 C60.1133054,71.8889183 60.0106422,71.3122253 59.9394822,71.2421772 C59.8686928,71.1713877 58.9677027,70.9234394 58.0863557,70.9234394 L58.0863557,70.9234394 Z M64.7172129,70.9234394 C62.8829883,70.9234394 61.6476942,72.3844443 61.6476942,74.412506 C61.6476942,75.998041 62.458993,77.5253878 64.6445703,77.5253878 C65.5429661,77.5253878 66.6229682,77.1629163 67.2218987,76.5117276 L67.0769842,76.2078149 C66.4954731,76.5606502 65.8561444,76.7289141 65.2383121,76.7289141 C63.4930375,76.7289141 62.7677238,75.1604278 62.8207232,73.7320379 L67.2218987,73.7320379 C67.2923175,72.2865992 66.532165,70.9234394 64.7172129,70.9234394 L64.7172129,70.9234394 Z M98.7539577,70.9234394 C96.7785249,70.9234394 95.3805263,72.3585006 95.3805263,74.2097739 C95.3805263,75.4439562 95.8723461,76.4691057 96.7703712,77.0331974 C97.3003653,77.3671308 97.9849103,77.5109334 98.725049,77.5109334 C100.68158,77.5109334 102.083655,76.0962567 102.083655,74.2097739 C102.083655,72.9937523 101.593318,71.9793509 100.693811,71.4156298 C100.164928,71.0805845 99.4940965,70.9234394 98.7539577,70.9234394 L98.7539577,70.9234394 Z M31.7808546,70.9668026 C29.8940012,70.9668026 28.479695,72.6598189 28.479695,74.5285117 C28.479695,76.0091597 29.3084132,77.5253878 31.4765712,77.5253878 C32.3749669,77.5253878 33.454969,77.1632869 34.0535289,76.5117276 L33.908985,76.2078149 C33.3274739,76.5599089 32.6870334,76.7289141 32.0703129,76.7289141 C30.3246678,76.7289141 29.6668079,75.2545666 29.6668079,73.7031291 C29.6668079,72.9811511 29.8413724,72.4574575 30.1593689,72.139461 C30.4580929,71.8396251 30.8806057,71.7343676 31.3027479,71.7343676 C31.9194684,71.7343676 32.6303277,71.9756446 33.14142,72.6464764 L33.2574257,72.632022 C33.4512628,72.3859268 33.6443586,71.8881771 33.6628898,71.5171811 C33.2222163,71.1650871 32.5562027,70.9668026 31.7808546,70.9668026 L31.7808546,70.9668026 Z M52.2086091,70.9668026 C51.3973103,70.9668026 50.5441309,71.3533647 49.892201,72.1831948 L49.892201,71.0538995 L47.5320591,71.0538995 L47.5320591,71.3578123 C48.5542437,71.3930217 48.6758088,71.4475036 48.6758088,73.2109387 L48.6758088,74.7601525 C48.6758088,76.9983587 48.6713613,76.9946524 47.5613385,77.0476518 L47.5613385,77.3515646 L50.9199449,77.3515646 L50.9199449,77.0476518 C49.9314873,76.9779743 49.892201,76.9953937 49.892201,74.7746069 L49.892201,73.0660242 C49.892201,72.4837719 50.6920104,71.7632763 51.6437761,71.7632763 C52.4187536,71.7632763 53.033621,72.1001747 53.033621,73.6164028 L53.033621,74.8757876 C53.033621,76.9746386 52.9632022,76.9946524 52.0636946,77.0476518 L52.0636946,77.3515646 L55.3644835,77.3515646 L55.3644835,77.0476518 C54.2544607,76.9946524 54.2500132,76.9746386 54.2500132,74.8757876 L54.2500132,73.4714883 C54.2500132,71.5675862 53.2133743,70.9668026 52.2086091,70.9668026 L52.2086091,70.9668026 Z M107.237571,70.9668026 C106.373643,70.9668026 105.530471,71.512363 105.037168,72.1831948 L105.037168,71.0538995 L102.677397,71.0538995 L102.677397,71.3578123 C103.701064,71.3930217 103.820776,71.4475036 103.820776,73.2109387 L103.820776,75.0062477 C103.820776,77.0343093 103.791867,77.0306031 102.735215,77.0476518 L102.735215,77.3515646 L106.064912,77.3515646 L106.064912,77.0476518 C105.130937,76.959443 105.037168,76.9575899 105.037168,74.9484301 L105.037168,73.1242124 C105.037168,72.4719119 105.864775,71.7632763 106.74538,71.7632763 C107.697517,71.7632763 108.106317,72.2932705 108.106317,73.5437603 L108.106317,74.81797 C108.106317,76.8986605 108.06073,76.9946524 107.179753,77.0476518 L107.179753,77.3515646 L110.30709,77.3515646 L110.30709,77.0476518 C109.266744,76.959443 109.293429,76.8678986 109.293429,74.8757876 L109.293429,73.109758 C109.293429,72.4748769 110.096574,71.7632763 111.030921,71.7632763 C111.8248,71.7632763 112.333669,72.2399005 112.333669,73.5437603 L112.333669,74.9917933 C112.333669,76.8956955 112.324032,76.9779743 111.407105,77.0476518 L111.407105,77.3515646 L114.722719,77.3515646 L114.722719,77.0476518 C113.577117,76.9946524 113.622333,76.839731 113.622333,75.0062477 L113.622333,73.3703076 C113.622333,71.6242918 112.677238,70.9668026 111.566474,70.9668026 C110.562821,70.9668026 109.74448,71.5320061 109.16334,72.342193 C108.915762,71.4790067 108.295706,70.9668026 107.237571,70.9668026 L107.237571,70.9668026 Z M119.297347,70.9668026 C118.380791,70.9668026 117.636575,71.395616 117.125854,71.9949171 L117.125854,71.0538995 L114.8239,71.0538995 L114.8239,71.3578123 C115.793456,71.3930217 115.909832,71.4523217 115.909832,73.5148515 L115.909832,77.8148462 C115.909832,80.0541642 115.960237,80.2231694 114.867263,80.2761688 L114.867263,80.5800815 L118.240695,80.5800815 L118.240695,80.2761688 C117.042463,80.2417006 117.125854,80.0437867 117.125854,77.6988405 L117.125854,76.8449198 C117.601737,77.3208027 118.352994,77.5109334 119.022343,77.5109334 C120.925875,77.5109334 122.1204,76.0851379 122.1204,74.1808651 C122.1204,72.348123 120.935882,70.9668026 119.297347,70.9668026 L119.297347,70.9668026 Z M125.450469,70.9668026 C124.762588,70.9668026 123.753005,71.2147509 123.206332,71.6910044 C123.241542,71.990099 123.508021,72.5716101 123.684068,72.7476571 L123.843437,72.7187483 C124.124742,72.0312384 124.606184,71.5316355 125.363742,71.5316355 C126.192831,71.5316355 126.536401,72.1183354 126.536401,72.8054747 L126.536401,73.5293059 C126.536401,74.0055594 124.43162,74.0948801 123.568433,74.81797 C123.268227,75.0818552 123.047334,75.4169005 123.047334,75.8749934 C123.047334,76.8623392 123.745592,77.5109334 124.784455,77.5109334 C125.436385,77.5109334 125.998253,77.2948589 126.579764,76.6421877 C126.667602,77.1002806 127.048605,77.3515646 127.665325,77.3515646 L132.414147,77.3515646 L132.414147,77.0476518 C131.426802,76.9779743 131.386033,76.9953937 131.386033,74.7746069 L131.386033,73.0660242 C131.386033,72.4837719 132.186954,71.7632763 133.137979,71.7632763 C133.914068,71.7632763 134.527823,72.1001747 134.527823,73.6164028 L134.527823,74.8757876 C134.527823,76.9746386 134.455922,76.9946524 133.557897,77.0476518 L133.557897,77.3515646 L136.858686,77.3515646 L136.858686,77.0476518 C135.747551,76.9946524 135.743845,76.9746386 135.743845,74.8757876 L135.743845,73.4714883 C135.743845,71.5675862 134.708689,70.9668026 133.702441,70.9668026 C132.892625,70.9668026 132.038333,71.3533647 131.386033,72.1831948 L131.386033,71.0538995 L129.026261,71.0538995 L129.026261,71.3578123 C130.048446,71.3930217 130.170011,71.4475036 130.170011,73.2109387 L130.170011,74.7601525 C130.170011,76.9983587 130.151109,76.9946524 129.040716,77.0476518 L128.780166,77.0476518 C127.898819,77.0476518 127.795785,76.7500397 127.795785,75.4984381 L127.795785,73.384762 C127.795785,72.9800392 127.752422,72.6127495 127.665325,72.3132843 C127.365489,71.3259385 126.560491,70.9668026 125.450469,70.9668026 L125.450469,70.9668026 Z M67.5258114,71.1406258 L67.5258114,71.4445386 C68.2477895,71.4801186 68.3082014,71.5820406 69.2773866,73.7320379 L70.9281516,77.3804733 C70.3640599,78.825912 69.4808599,79.6101551 67.6996347,80.0152486 C67.7885847,80.3154551 68.1180706,80.8406311 68.2930058,81 C70.6383227,80.0478636 71.0986393,78.494573 71.9269868,76.1499974 L73.1719172,72.5882882 C73.4535924,71.7769895 73.905014,71.4445386 74.3445756,71.4445386 L74.3445756,71.1406258 L72.0715307,71.1406258 L72.0715307,71.4445386 C72.6189442,71.4801186 72.9061789,71.7832901 72.6941812,72.4003812 L71.4781596,75.9761741 L70.3055011,73.2109387 C69.9893578,72.4533806 69.8711283,72.1576216 69.8711283,71.8933658 C69.8711283,71.6461587 70.0071478,71.4986499 70.46487,71.4445386 L70.46487,71.1406258 L67.5258114,71.1406258 L67.5258114,71.1406258 Z M136.409859,71.1406258 L136.409859,71.4445386 C137.132207,71.4801186 137.206703,71.5820406 138.176259,73.7320379 L139.812199,77.3804733 C139.247366,78.825912 138.364536,79.6101551 136.583682,80.0152486 C136.672261,80.3154551 137.001747,80.8406311 137.177053,81 C139.522741,80.0478636 139.983057,78.494573 140.811034,76.1499974 L142.070789,72.5882882 C142.352094,71.7769895 142.788691,71.4445386 143.228993,71.4445386 L143.228993,71.1406258 L140.955949,71.1406258 L140.955949,71.4445386 C141.502991,71.4801186 141.80468,71.7832901 141.593053,72.4003812 L140.376661,75.9761741 L139.189548,73.2109387 C138.872293,72.4533806 138.755176,72.1576216 138.755176,71.8933658 C138.755176,71.6461587 138.891195,71.4986499 139.348917,71.4445386 L139.348917,71.1406258 L136.409859,71.1406258 L136.409859,71.1406258 Z M64.4711177,71.4445386 C65.4573516,71.4445386 66.0607296,72.0909091 66.078149,73.2543019 L62.8351776,73.2543019 C62.9404352,72.0909091 63.4663525,71.4445386 64.4711177,71.4445386 L64.4711177,71.4445386 Z M98.5801345,71.4445386 C99.7083179,71.4445386 100.824271,72.5364007 100.824271,74.615238 C100.824271,76.0788373 100.1779,76.9750093 98.8551385,76.9750093 C97.7095357,76.9750093 96.639911,75.9235453 96.639911,73.7902261 C96.639911,72.273998 97.3622598,71.4445386 98.5801345,71.4445386 L98.5801345,71.4445386 Z M77.3414518,71.6039074 C78.22354,73.1727643 79.8698576,74.8376132 81.5980833,76.1066342 C81.0680892,76.5124689 80.1774766,76.6277334 79.4551279,76.6277334 C77.6038545,76.6277334 76.1398846,75.3190554 76.1398846,73.5730397 C76.1398846,72.4800657 76.6183618,71.7981151 77.3414518,71.6039074 L77.3414518,71.6039074 Z M118.732885,71.7632763 C120.035633,71.7632763 120.846561,72.7361677 120.846561,74.340234 C120.846561,75.9795097 120.163869,77.0331974 118.877429,77.0331974 C118.049081,77.0331974 117.125854,76.5639858 117.125854,75.9472653 L117.125854,72.8199291 C117.125854,72.2914174 117.886747,71.7632763 118.732885,71.7632763 L118.732885,71.7632763 Z M126.536401,74.1230476 L126.536401,75.8601684 C126.536401,76.3890507 125.840737,76.816011 125.276645,76.816011 C124.748134,76.816011 124.306719,76.4824482 124.306719,75.7589877 C124.306719,74.4729179 125.638005,74.6163499 126.536401,74.1230476 L126.536401,74.1230476 Z" id="Imported-Layers-Copy-28"></path>
        </g>
    </g>
</svg>